<mxfile host="app.diagrams.net" agent="Mozilla/5.0 (X11; Linux x86_64) AppleWebKit/537.36 (KHTML, like Gecko) Chrome/129.0.0.0 Safari/537.36" version="24.8.2">
  <diagram name="PÃ gina-1" id="mhbHxmUa4zc_a_H4eHv1">
    <mxGraphModel dx="1247" dy="1146" grid="1" gridSize="10" guides="1" tooltips="1" connect="1" arrows="1" fold="1" page="1" pageScale="1" pageWidth="827" pageHeight="1169" math="0" shadow="0">
      <root>
        <mxCell id="0" />
        <mxCell id="1" parent="0" />
        <mxCell id="icc5MLtJjFc-4boV4KYr-1" value="&lt;i style=&quot;font-size: 16px;&quot;&gt;&lt;font style=&quot;font-size: 12px;&quot;&gt;Commit inicial&lt;/font&gt;&lt;/i&gt;" style="ellipse;whiteSpace=wrap;html=1;fillColor=#f5f5f5;fontColor=#333333;strokeColor=#666666;" vertex="1" parent="1">
          <mxGeometry x="1050" y="685" width="60" height="60" as="geometry" />
        </mxCell>
        <mxCell id="icc5MLtJjFc-4boV4KYr-2" style="rounded=0;orthogonalLoop=1;jettySize=auto;html=1;" edge="1" parent="1" source="icc5MLtJjFc-4boV4KYr-3" target="icc5MLtJjFc-4boV4KYr-1">
          <mxGeometry relative="1" as="geometry" />
        </mxCell>
        <mxCell id="icc5MLtJjFc-4boV4KYr-3" value="&lt;i style=&quot;font-size: 16px;&quot;&gt;&lt;font style=&quot;font-size: 12px;&quot;&gt;Menjar&lt;/font&gt;&lt;/i&gt;" style="ellipse;whiteSpace=wrap;html=1;fillColor=#f5f5f5;fontColor=#333333;strokeColor=#666666;" vertex="1" parent="1">
          <mxGeometry x="1290" y="685" width="60" height="60" as="geometry" />
        </mxCell>
        <mxCell id="icc5MLtJjFc-4boV4KYr-4" style="rounded=0;orthogonalLoop=1;jettySize=auto;html=1;exitX=0.5;exitY=1;exitDx=0;exitDy=0;fillColor=#dae8fc;strokeColor=#6c8ebf;" edge="1" parent="1" source="icc5MLtJjFc-4boV4KYr-5" target="icc5MLtJjFc-4boV4KYr-3">
          <mxGeometry relative="1" as="geometry">
            <mxPoint x="1279" y="705" as="targetPoint" />
          </mxGeometry>
        </mxCell>
        <mxCell id="icc5MLtJjFc-4boV4KYr-5" value="menjar" style="ellipse;whiteSpace=wrap;html=1;fillColor=#dae8fc;strokeColor=#6c8ebf;fontSize=16;fontStyle=1" vertex="1" parent="1">
          <mxGeometry x="1270" y="615" width="100" height="40" as="geometry" />
        </mxCell>
        <mxCell id="icc5MLtJjFc-4boV4KYr-6" value="&lt;i style=&quot;font-size: 16px;&quot;&gt;&lt;font style=&quot;font-size: 12px;&quot;&gt;Beguda&lt;/font&gt;&lt;/i&gt;" style="ellipse;whiteSpace=wrap;html=1;fillColor=#f5f5f5;fontColor=#333333;strokeColor=#666666;" vertex="1" parent="1">
          <mxGeometry x="1290" y="845" width="60" height="60" as="geometry" />
        </mxCell>
        <mxCell id="icc5MLtJjFc-4boV4KYr-7" style="rounded=0;orthogonalLoop=1;jettySize=auto;html=1;exitX=0.5;exitY=1;exitDx=0;exitDy=0;fillColor=#dae8fc;strokeColor=#6c8ebf;" edge="1" parent="1" source="icc5MLtJjFc-4boV4KYr-8" target="icc5MLtJjFc-4boV4KYr-6">
          <mxGeometry relative="1" as="geometry">
            <mxPoint x="1239" y="850" as="targetPoint" />
          </mxGeometry>
        </mxCell>
        <mxCell id="icc5MLtJjFc-4boV4KYr-8" value="beguda" style="ellipse;whiteSpace=wrap;html=1;fillColor=#dae8fc;strokeColor=#6c8ebf;fontSize=16;fontStyle=1" vertex="1" parent="1">
          <mxGeometry x="1270" y="775" width="100" height="40" as="geometry" />
        </mxCell>
        <mxCell id="icc5MLtJjFc-4boV4KYr-9" style="rounded=0;orthogonalLoop=1;jettySize=auto;html=1;" edge="1" parent="1" source="icc5MLtJjFc-4boV4KYr-6" target="icc5MLtJjFc-4boV4KYr-1">
          <mxGeometry relative="1" as="geometry">
            <mxPoint x="1325" y="663.5" as="sourcePoint" />
            <mxPoint x="1177" y="806.5" as="targetPoint" />
          </mxGeometry>
        </mxCell>
        <mxCell id="icc5MLtJjFc-4boV4KYr-10" style="rounded=0;orthogonalLoop=1;jettySize=auto;html=1;exitX=0.5;exitY=1;exitDx=0;exitDy=0;fillColor=#d5e8d4;strokeColor=#82b366;" edge="1" parent="1" source="icc5MLtJjFc-4boV4KYr-11" target="icc5MLtJjFc-4boV4KYr-1">
          <mxGeometry relative="1" as="geometry">
            <mxPoint x="1555" y="685" as="targetPoint" />
          </mxGeometry>
        </mxCell>
        <mxCell id="icc5MLtJjFc-4boV4KYr-11" value="main" style="ellipse;whiteSpace=wrap;html=1;fillColor=#d5e8d4;strokeColor=#82b366;fontSize=16;fontStyle=1" vertex="1" parent="1">
          <mxGeometry x="1030" y="615" width="100" height="40" as="geometry" />
        </mxCell>
        <mxCell id="icc5MLtJjFc-4boV4KYr-12" style="edgeStyle=orthogonalEdgeStyle;rounded=0;orthogonalLoop=1;jettySize=auto;html=1;exitX=0.5;exitY=1;exitDx=0;exitDy=0;fillColor=#f5f5f5;strokeColor=#666666;" edge="1" parent="1" source="icc5MLtJjFc-4boV4KYr-13" target="icc5MLtJjFc-4boV4KYr-11">
          <mxGeometry relative="1" as="geometry">
            <mxPoint x="1256" y="610" as="targetPoint" />
          </mxGeometry>
        </mxCell>
        <mxCell id="icc5MLtJjFc-4boV4KYr-13" value="HEAD" style="ellipse;whiteSpace=wrap;html=1;fillColor=#f5f5f5;strokeColor=#666666;fontSize=16;fontStyle=1;fontColor=#333333;" vertex="1" parent="1">
          <mxGeometry x="1030" y="540" width="100" height="40" as="geometry" />
        </mxCell>
      </root>
    </mxGraphModel>
  </diagram>
</mxfile>
